<?xml version="1.0" encoding="utf-8"?>
<svg version="1.1" xmlns:xlink="http://www.w3.org/1999/xlink" width="28px" height="25px" xmlns="http://www.w3.org/2000/svg">
  <g transform="matrix(1 0 0 1 -53 -98 )">
    <path d="M 27.171875 11.296875  C 27.7239583333333 12.6927083333333  28 14.4270833333333  28 16.5  C 28 18.2291666666667  27.3385416666667 20.578125  26.015625 23.546875  C 25.984375 23.6197916666667  25.9296875 23.7447916666667  25.8515625 23.921875  C 25.7734375 24.0989583333333  25.703125 24.2552083333333  25.640625 24.390625  C 25.578125 24.5260416666667  25.5104166666667 24.640625  25.4375 24.734375  C 25.3125 24.9114583333333  25.1666666666667 25  25 25  C 24.84375 25  24.7213541666667 24.9479166666667  24.6328125 24.84375  C 24.5442708333333 24.7395833333333  24.5 24.609375  24.5 24.453125  C 24.5 24.359375  24.5130208333333 24.2213541666667  24.5390625 24.0390625  C 24.5651041666667 23.8567708333333  24.578125 23.734375  24.578125 23.671875  C 24.6302083333333 22.9635416666667  24.65625 22.3229166666667  24.65625 21.75  C 24.65625 20.6979166666667  24.5651041666667 19.7552083333333  24.3828125 18.921875  C 24.2005208333333 18.0885416666667  23.9479166666667 17.3671875  23.625 16.7578125  C 23.3020833333333 16.1484375  22.8854166666667 15.6223958333333  22.375 15.1796875  C 21.8645833333333 14.7369791666667  21.3151041666667 14.375  20.7265625 14.09375  C 20.1380208333333 13.8125  19.4453125 13.5911458333333  18.6484375 13.4296875  C 17.8515625 13.2682291666667  17.0494791666667 13.15625  16.2421875 13.09375  C 15.4348958333333 13.03125  14.5208333333333 13  13.5 13  L 10 13  L 10 17  C 10 17.2708333333333  9.90104166666667 17.5052083333333  9.703125 17.703125  C 9.50520833333333 17.9010416666667  9.27083333333333 18  9 18  C 8.72916666666667 18  8.49479166666667 17.9010416666667  8.296875 17.703125  L 0.296875 9.703125  C 0.0989583333333333 9.50520833333333  0 9.27083333333333  0 9  C 0 8.72916666666667  0.0989583333333333 8.49479166666666  0.296875 8.296875  L 8.296875 0.296874999999999  C 8.49479166666667 0.0989583333333321  8.72916666666667 0  9 0  C 9.27083333333333 0  9.50520833333333 0.0989583333333321  9.703125 0.296874999999999  C 9.90104166666667 0.494791666666664  10 0.729166666666664  10 1  L 10 5  L 13.5 5  C 20.9270833333333 5  25.484375 7.09895833333333  27.171875 11.296875  Z " fill-rule="nonzero" fill="#1c69d4" stroke="none" transform="matrix(1 0 0 1 53 98 )" />
  </g>
</svg>