<?xml version="1.0" standalone="no"?><!DOCTYPE svg PUBLIC "-//W3C//DTD SVG 1.1//EN" "http://www.w3.org/Graphics/SVG/1.1/DTD/svg11.dtd"><svg t="1663573469774" class="icon" viewBox="0 0 1024 1024" version="1.1" xmlns="http://www.w3.org/2000/svg" p-id="6373" xmlns:xlink="http://www.w3.org/1999/xlink" width="64" height="64"><path d="M457 908H152.8c-16.6 0-30-13.4-30-30V573.6c0-16.6 13.4-30 30-30h304.4c16.6 0 30 13.4 30 30V878c-0.2 16.6-13.6 30-30.2 30zM182.8 848h244.4V603.6H182.8V848z m690.2 60H568.6c-16.6 0-30-13.4-30-30V573.6c0-16.6 13.4-30 30-30h304.4c16.6 0 30 13.4 30 30V878c0 16.6-13.6 30-30 30z m-274.4-60h244.4V603.6H598.6V848z m274.4-359.8H568.6c-16.6 0-30-13.4-30-30V153.8c0-16.6 13.4-30 30-30h304.4c16.6 0 30 13.4 30 30v304.4c0 16.6-13.6 30-30 30z m-274.4-60h244.4V183.8H598.6v244.4z m-304.8 88.4c-8 0-15.6-3.2-21.2-8.8l-190-190c-11.8-11.8-11.8-30.8 0-42.4l190-190c11.8-11.8 30.8-11.8 42.4 0l190 190c5.6 5.6 8.8 13.2 8.8 21.2s-3.2 15.6-8.8 21.2l-190 190c-5.6 5.6-13.2 8.8-21.2 8.8z m-147.6-220l147.6 147.6 147.6-147.6-147.6-147.6-147.6 147.6z" p-id="6374" fill="#0D6BFF"></path></svg>