<?xml version="1.0" encoding="utf-8"?>
<svg version="1.1" xmlns:xlink="http://www.w3.org/1999/xlink" width="18px" height="14px" xmlns="http://www.w3.org/2000/svg">
  <g transform="matrix(1 0 0 1 -63 -162 )">
    <path d="M 3.29464285714286 10.7386363636364  C 3.66964285714286 11.1098484848485  3.85714285714286 11.5606060606061  3.85714285714286 12.0909090909091  C 3.85714285714286 12.6212121212121  3.66964285714286 13.0719696969697  3.29464285714286 13.4431818181818  C 2.91964285714286 13.8143939393939  2.46428571428571 14  1.92857142857143 14  C 1.39285714285714 14  0.9375 13.8143939393939  0.5625 13.4431818181818  C 0.1875 13.0719696969697  0 12.6212121212121  0 12.0909090909091  C 0 11.5606060606061  0.1875 11.1098484848485  0.5625 10.7386363636364  C 0.9375 10.3674242424242  1.39285714285714 10.1818181818182  1.92857142857143 10.1818181818182  C 2.46428571428571 10.1818181818182  2.91964285714286 10.3674242424242  3.29464285714286 10.7386363636364  Z M 3.29464285714286 5.64772727272727  C 3.66964285714286 6.01893939393939  3.85714285714286 6.46969696969697  3.85714285714286 7  C 3.85714285714286 7.53030303030303  3.66964285714286 7.98106060606061  3.29464285714286 8.35227272727273  C 2.91964285714286 8.72348484848485  2.46428571428571 8.90909090909091  1.92857142857143 8.90909090909091  C 1.39285714285714 8.90909090909091  0.9375 8.72348484848485  0.5625 8.35227272727273  C 0.1875 7.98106060606061  0 7.53030303030303  0 7  C 0 6.46969696969697  0.1875 6.01893939393939  0.5625 5.64772727272727  C 0.9375 5.27651515151515  1.39285714285714 5.09090909090909  1.92857142857143 5.09090909090909  C 2.46428571428571 5.09090909090909  2.91964285714286 5.27651515151515  3.29464285714286 5.64772727272727  Z M 17.9045758928571 10.9126420454545  C 17.9681919642857 10.975615530303  18 11.0501893939394  18 11.1363636363636  L 18 13.0454545454545  C 18 13.1316287878788  17.9681919642857 13.2062026515152  17.9045758928571 13.2691761363636  C 17.8409598214286 13.3321496212121  17.765625 13.3636363636364  17.6785714285714 13.3636363636364  L 5.46428571428571 13.3636363636364  C 5.37723214285714 13.3636363636364  5.30189732142857 13.3321496212121  5.23828125 13.2691761363636  C 5.17466517857143 13.2062026515152  5.14285714285714 13.1316287878788  5.14285714285714 13.0454545454545  L 5.14285714285714 11.1363636363636  C 5.14285714285714 11.0501893939394  5.17466517857143 10.975615530303  5.23828125 10.9126420454545  C 5.30189732142857 10.8496685606061  5.37723214285714 10.8181818181818  5.46428571428571 10.8181818181818  L 17.6785714285714 10.8181818181818  C 17.765625 10.8181818181818  17.8409598214286 10.8496685606061  17.9045758928571 10.9126420454545  Z M 3.29464285714286 0.556818181818182  C 3.66964285714286 0.928030303030303  3.85714285714286 1.37878787878788  3.85714285714286 1.90909090909091  C 3.85714285714286 2.43939393939394  3.66964285714286 2.89015151515151  3.29464285714286 3.26136363636364  C 2.91964285714286 3.63257575757576  2.46428571428571 3.81818181818182  1.92857142857143 3.81818181818182  C 1.39285714285714 3.81818181818182  0.9375 3.63257575757576  0.5625 3.26136363636364  C 0.1875 2.89015151515151  0 2.43939393939394  0 1.90909090909091  C 0 1.37878787878788  0.1875 0.928030303030303  0.5625 0.556818181818182  C 0.9375 0.18560606060606  1.39285714285714 0  1.92857142857143 0  C 2.46428571428571 0  2.91964285714286 0.18560606060606  3.29464285714286 0.556818181818182  Z M 17.9045758928571 5.82173295454546  C 17.9681919642857 5.88470643939394  18 5.9592803030303  18 6.04545454545455  L 18 7.95454545454545  C 18 8.0407196969697  17.9681919642857 8.11529356060606  17.9045758928571 8.17826704545455  C 17.8409598214286 8.24124053030303  17.765625 8.27272727272727  17.6785714285714 8  L 5.46428571428571 8  C 5.37723214285714 8.27272727272727  5.30189732142857 8.24124053030303  5.23828125 8.17826704545455  C 5.17466517857143 8.11529356060606  5.14285714285714 8.0407196969697  5.14285714285714 7.95454545454545  L 5.14285714285714 6.04545454545455  C 5.14285714285714 5.9592803030303  5.17466517857143 5.88470643939394  5.23828125 5.82173295454546  C 5.30189732142857 5.75875946969697  5.37723214285714 5.72727272727273  5.46428571428571 6  L 17.6785714285714 6  C 17.765625 5.72727272727273  17.8409598214286 5.75875946969697  17.9045758928571 5.82173295454546  Z M 17.9045758928571 0.730823863636364  C 17.9681919642857 0.793797348484848  18 0.868371212121212  18 0.954545454545455  L 18 2.86363636363636  C 18 2.9498106060606  17.9681919642857 3.02438446969697  17.9045758928571 3.08735795454546  C 17.8409598214286 3.15033143939394  17.765625 3.18181818181818  17.6785714285714 3.18181818181818  L 5.46428571428571 3.18181818181818  C 5.37723214285714 3.18181818181818  5.30189732142857 3.15033143939394  5.23828125 3.08735795454546  C 5.17466517857143 3.02438446969697  5.14285714285714 2.9498106060606  5.14285714285714 2.86363636363636  L 5.14285714285714 0.954545454545455  C 5.14285714285714 0.868371212121212  5.17466517857143 0.793797348484848  5.23828125 0.730823863636364  C 5.30189732142857 0.667850378787878  5.37723214285714 0.636363636363636  5.46428571428571 0.636363636363636  L 17.6785714285714 0.636363636363636  C 17.765625 0.636363636363636  17.8409598214286 0.667850378787878  17.9045758928571 0.730823863636364  Z " fill-rule="nonzero" fill="#262626" stroke="none" transform="matrix(1 0 0 1 63 162 )" />
  </g>
</svg>